# xmcd
#
# Track frame offsets:
#	150
#	14761
#	27026
#	42697
#	57364
#	79300
#	89396
#	107041
#	120340
#	135193
#	153516
#	165098
#
# Disc length: 2390 seconds
#
# Revision: 0
# Processed by: cddbd v1.5.2PL0 Copyright (c) Steve Scherf et al.
# Submitted via: dBpowerAMP V4.0
#
DISCID=8e09540c
DTITLE=Cliff Eberhardt - The High above and the down below
DYEAR=2007
DGENRE=Blues
TTITLE0=The High above and the down below
TTITLE1=Missing you
TTITLE2=It'a Home everywhere I Go
TTITLE3=The next big Thing
TTITLE4=The right Words
TTITLE5=After the rain falls 
TTITLE6=Assembly line
TTITLE7=Dug your own grave
TTITLE8=Let this whole thing burn
TTITLE9=New is what's come over you
TTITLE10=I'm all Right
TTITLE11=Goodbye Again
EXTD=
EXTT0=
EXTT1=
EXTT2=
EXTT3=
EXTT4=
EXTT5=
EXTT6=
EXTT7=
EXTT8=
EXTT9=
EXTT10=
EXTT11=
PLAYORDER=
